<svg width="612" height="148" viewBox="0 0 612 148" fill="none" xmlns="http://www.w3.org/2000/svg">
<path d="M13.376 29.92V28.56H16.576C23.696 28.56 29.056 23.04 29.056 16.08C29.056 9.28 24.336 5.6 17.376 5.6C9.056 5.6 6.096 11.52 5.616 16.64V19.28H4.176V4.96H4.896V8.16L5.216 8.24C5.536 7.68 6.416 6.88 7.136 6.56C9.936 5.04 14.096 4.24 17.216 4.16C27.136 4.16 34.496 8.88 34.496 15.92C34.496 21.84 28.656 28.08 22.976 29.04V29.12C31.696 30.16 38.496 38.32 38.496 46.72C38.496 56.48 29.456 62.96 17.216 62.96C12.576 62.96 6.656 61.04 2.336 57.12L3.536 56.08C7.456 59.68 13.056 61.44 17.216 61.44C26.016 61.44 31.856 56.24 31.856 46.64C31.856 36.96 25.856 29.92 17.856 29.92H13.376Z" fill="url(#paint0_linear_18_4467)"/>
<path d="M60.2816 60.8H70.2816C81.2416 60.8 88.5216 54.72 88.5216 45.6C88.5216 36 80.6816 29.12 69.7216 29.12H65.0816V27.76H68.6016C76.3616 27.76 81.9616 23.28 81.9616 16.96C81.9616 10.48 76.2016 6.16 67.4016 6.16H60.2816V6.24C61.3216 7.2 61.7216 8.56 61.7216 10.4V56.56C61.7216 58.4 61.3216 59.68 60.2816 60.64V60.8ZM47.1616 62.24V61.44H50.2016C54.4416 61.44 54.9216 61.04 54.9216 57.2V9.68C54.9216 5.84 54.4416 5.44 50.2016 5.44H47.1616V4.72H68.6016C81.0816 4.72 89.4816 9.52 89.4816 16.8C89.4816 21.36 84.9216 26.96 76.8416 28V28.32C88.2016 29.04 96.1216 37.44 96.1216 45.6C96.1216 55.6 85.4816 62.24 71.8816 62.24H47.1616Z" fill="url(#paint1_linear_18_4467)"/>
<path d="M111.1 62.88C108.22 62.88 106.62 60.8 106.62 56.56C107.9 56.8 110.38 57.12 111.5 57.12C118.14 57.12 120.62 54.48 122.38 50.64L123.1 49.12C123.34 48.56 123.5 47.84 123.5 47.04C123.5 46.32 123.34 45.52 122.86 44.64L106.54 10.4C104.86 6.72 104.38 5.44 101.26 5.44H99.9004V4.72H116.94V5.44H110.62V5.6C111.9 6 112.86 7.92 113.58 9.36L126.22 35.6C126.78 36.72 126.86 38.48 126.86 38.96V39.12L127.5 38.96L139.82 10.4C140.14 9.52 140.38 8.64 140.38 7.92C140.38 6.48 139.42 5.44 136.06 5.44H132.06V4.72H147.18V5.36H146.62C143.5 5.36 143.02 6.88 141.58 10.4L122.94 53.12C120.14 59.6 115.58 62.88 111.1 62.88Z" fill="url(#paint2_linear_18_4467)"/>
<path d="M232.881 52.48C216.961 52.48 206.401 42.8 206.401 28.24C206.401 13.76 216.961 4.08 232.881 4.08C248.641 4.08 259.201 13.76 259.201 28.24C259.201 42.8 248.641 52.48 232.881 52.48ZM233.121 51.04C245.041 51.04 251.441 43.6 251.441 29.76C251.441 14 244.721 5.52 232.481 5.52C220.481 5.52 214.081 12.96 214.081 26.8C214.081 42.56 220.721 51.04 233.121 51.04ZM153.441 62.24L153.521 61.36H156.561C160.801 61.36 161.281 60.88 161.281 56.4V9.52C161.281 5.68 160.801 5.28 156.561 5.28H153.521V4.56H173.681V5.28H172.881C168.641 5.28 168.081 5.6 168.081 9.36V27.52C171.281 27.52 173.041 27.36 173.841 26.4L187.761 10.48C188.801 9.2 189.201 8.24 189.201 7.44C189.201 5.92 187.361 5.28 184.641 5.28H183.841V4.56H203.761V5.28H202.241C198.401 5.28 193.041 6.56 189.361 10.8L175.361 26.88L175.441 27.2C182.401 28.64 187.121 33.52 191.761 39.2C200.401 49.84 208.561 63.44 229.121 63.44C242.641 63.44 253.841 56.64 256.641 54.48L258.561 52.96L259.041 53.52L257.041 55.04C251.121 59.76 238.961 65.92 225.921 65.92C205.041 65.92 194.481 52.96 186.161 42.24C180.241 34.72 175.521 28.32 169.121 28.32H168.001V56.88C168.001 61.04 168.641 61.52 172.801 61.52H175.841V62.24H153.441Z" fill="url(#paint3_linear_18_4467)"/>
<path d="M267.521 62.24V61.52H270.561C274.801 61.52 275.281 60.4 275.281 56.56V10.4C275.281 6.56 274.801 5.44 270.561 5.44H267.521V4.72H289.121V5.44H286.881C282.641 5.44 282.081 6.56 282.081 10.4V31.28H306.241V10.4C306.241 6.56 305.681 5.44 301.441 5.44H299.201V4.72H320.881V5.44H317.761C313.521 5.44 313.121 6.56 313.121 10.4V56.56C313.121 60.4 313.521 61.52 317.761 61.52H320.881V62.24H299.201V61.52H301.601C305.761 61.52 306.241 60.4 306.241 56.56V32.72H282.081V56.56C282.081 60.4 282.641 61.52 286.881 61.52H289.121V62.24H267.521Z" fill="url(#paint4_linear_18_4467)"/>
<path d="M356.405 45.76H355.605V41.36C355.605 33.68 351.045 32.8 346.085 32.8H342.565V56.56C342.565 58.32 341.685 59.76 340.645 60.72V60.8H358.165C366.645 60.8 370.645 57.68 371.285 50L371.845 43.6H373.205L371.685 65.28L370.965 65.2L371.205 61.52H371.125C370.485 62.08 369.285 62.24 367.845 62.24H328.005V61.52H331.045C335.285 61.52 335.765 61.12 335.765 57.28V9.68C335.765 5.84 335.285 5.44 331.045 5.44H328.005V4.72H363.125C364.485 4.72 365.765 4.88 366.325 5.44H366.485L366.165 1.76L366.965 1.68L368.565 23.36H366.965L366.645 17.76C366.085 9.12 361.525 6.16 353.045 6.16H340.645V6.24C341.685 7.2 342.565 8.64 342.565 10.4V31.36H346.085C351.045 31.36 355.605 30.56 355.605 22.88V20.08H356.405V45.76Z" fill="url(#paint5_linear_18_4467)"/>
<path d="M387.1 62.24V61.52H393.82C398.06 61.52 398.46 61.12 398.46 57.28V6.16H393.18C384.7 6.16 381.74 7.68 381.34 15.36L381.02 18.64L379.42 18.56L380.78 0L381.74 0.0800037L381.34 4.72H422.3L421.9 0.160003L422.86 0.0800037L424.14 18.56L422.54 18.64L422.3 15.36C421.66 7.68 418.86 6.16 410.46 6.16H405.34V57.28C405.34 61.12 405.74 61.52 409.98 61.52H416.54V62.24H387.1Z" fill="url(#paint6_linear_18_4467)"/>
<path d="M431.083 62.24V61.52H434.124C438.363 61.52 438.844 60.4 438.844 56.56V10.4C438.844 6.56 438.363 5.44 434.124 5.44H431.083V4.72H452.684V5.44H450.444C446.204 5.44 445.643 6.56 445.643 10.4V56.8L470.684 4.72H484.444V5.44H481.323C477.083 5.44 476.684 6.56 476.684 10.4V56.56C476.684 60.4 477.083 61.52 481.323 61.52H484.444V62.24H462.763V61.52H465.164C469.324 61.52 469.803 60.4 469.803 56.56V10.16L444.763 62.24H431.083Z" fill="url(#paint7_linear_18_4467)"/>
<path d="M491.568 62.24L491.808 61.52H494.928C499.088 61.52 499.568 61.04 499.568 56.56V9.68C499.568 5.84 499.088 5.44 494.928 5.44H491.808V4.72H511.968V5.44H511.168C506.928 5.44 506.448 5.84 506.448 9.68V27.68C509.568 27.68 511.328 27.52 512.128 26.56L526.048 10.64C527.088 9.36 527.568 8.4 527.568 7.6C527.568 6.08 525.728 5.44 523.008 5.44H522.208V4.72H541.648V5.44H540.528C536.688 5.44 531.328 6.72 527.648 10.96L513.648 27.04L513.728 27.36C524.848 29.68 528.288 36.88 529.728 44C531.488 52.64 530.608 61.2 537.408 61.2C538.528 61.2 539.968 60.72 541.568 59.6L542.688 58.8L543.168 59.36L542.048 60.16C539.568 62.16 537.168 63.12 534.848 63.12C525.408 63.12 524.528 53.76 522.688 44.8C520.928 36.48 518.288 28.4 507.248 28.4H506.128V56.56C506.128 61.04 506.688 61.52 510.928 61.52H513.968V62.24H491.568Z" fill="url(#paint8_linear_18_4467)"/>
<path d="M546.25 62.24V61.52H547.61C549.85 61.52 551.13 59.28 552.49 56.56L577.21 4.72H584.01V5.68C584.01 7.28 584.33 9.36 584.81 10.32L605.53 56.56C607.29 60.4 607.61 61.52 610.73 61.52H611.45V62.24H594.65V61.52H601.37V61.36C600.17 60.96 599.29 58.96 598.65 57.6L593.77 46.64H558.89L554.17 56.56C553.93 57.2 553.69 57.84 553.69 58.4C553.69 60.24 555.29 61.52 557.93 61.52H562.25V62.24H546.25ZM559.61 45.2H593.13L578.17 11.84C577.53 10.56 577.45 9.52 577.45 8.64H576.65C576.65 9.12 576.41 10.16 575.61 11.84L559.61 45.2Z" fill="url(#paint9_linear_18_4467)"/>
<path d="M5.368 117.504C3.014 117.504 1.32 116.492 0 114.886L1.056 114.226C2.002 115.502 3.608 116.36 5.368 116.36C8.69 116.36 11.286 113.874 11.44 110.288H3.212V109.144H11.418C11.088 105.756 8.558 103.468 5.368 103.468C3.608 103.468 2.002 104.326 1.056 105.602L0.022 104.92C1.254 103.358 3.014 102.324 5.368 102.324C9.504 102.324 12.804 105.404 12.804 109.914C12.804 114.424 9.504 117.504 5.368 117.504Z" fill="url(#paint10_linear_18_4467)"/>
<path d="M18.9393 117.24H17.7952V107.626H14.6713V106.614H22.0853V107.626H18.9393V117.24Z" fill="url(#paint11_linear_18_4467)"/>
<path d="M28.941 117.504C25.839 117.504 23.837 115.018 23.837 111.916C23.837 108.814 25.839 106.35 28.941 106.35C32.087 106.35 34.067 108.814 34.067 111.916C34.067 115.018 32.087 117.504 28.941 117.504ZM28.941 116.47C31.449 116.47 32.835 114.292 32.835 111.916C32.835 109.562 31.449 107.384 28.941 107.384C26.477 107.384 25.069 109.562 25.069 111.916C25.069 114.292 26.477 116.47 28.941 116.47Z" fill="url(#paint12_linear_18_4467)"/>
<path d="M52.7467 117.24H51.5807V108.176L47.9507 117.24H47.5327L43.8587 108.176V117.24H42.7147V106.614H44.2547L47.7307 115.238L51.1627 106.614H52.7467V117.24Z" fill="url(#paint13_linear_18_4467)"/>
<path d="M61.0223 117.504C57.9203 117.504 55.6983 115.194 55.6983 111.916C55.6983 108.836 57.8763 106.35 60.8243 106.35C64.0583 106.35 65.8403 108.924 65.8403 111.982V112.29H56.9523C57.0623 114.6 58.6023 116.514 61.1103 116.514C62.4523 116.514 63.6843 116.008 64.5863 115.04L65.1803 115.788C64.1243 116.888 62.7823 117.504 61.0223 117.504ZM64.6743 111.388C64.6523 109.584 63.4643 107.34 60.8023 107.34C58.2943 107.34 57.0403 109.54 56.9523 111.388H64.6743Z" fill="url(#paint14_linear_18_4467)"/>
<path d="M71.8767 117.24H70.7327V107.626H67.6087V106.614H75.0228V107.626H71.8767V117.24Z" fill="url(#paint15_linear_18_4467)"/>
<path d="M81.8785 117.504C78.7765 117.504 76.7745 115.018 76.7745 111.916C76.7745 108.814 78.7765 106.35 81.8785 106.35C85.0245 106.35 87.0045 108.814 87.0045 111.916C87.0045 115.018 85.0245 117.504 81.8785 117.504ZM81.8785 116.47C84.3865 116.47 85.7725 114.292 85.7725 111.916C85.7725 109.562 84.3865 107.384 81.8785 107.384C79.4145 107.384 78.0065 109.562 78.0065 111.916C78.0065 114.292 79.4145 116.47 81.8785 116.47Z" fill="url(#paint16_linear_18_4467)"/>
<path d="M88.5729 119.946V116.294C89.6069 116.162 90.3329 115.326 90.7949 111.916L91.4989 106.614H98.2749V116.206H99.5509V119.946H98.4069V117.24H89.7389V119.946H88.5729ZM92.5329 107.626L91.9389 112.048C91.6089 114.468 91.0809 115.656 90.2889 116.206H97.1309V107.626H92.5329Z" fill="url(#paint17_linear_18_4467)"/>
<path d="M107.108 121.398L107.306 120.342C107.548 120.452 107.966 120.518 108.23 120.518C108.934 120.518 109.418 120.232 109.836 119.22L110.672 117.328L106.184 106.614H107.46L111.332 115.898L115.16 106.614H116.458L110.958 119.572C110.386 120.914 109.484 121.552 108.23 121.552C107.878 121.552 107.394 121.486 107.108 121.398Z" fill="url(#paint18_linear_18_4467)"/>
<path d="M126.72 117.24H125.576V107.626H119.548V117.24H118.404V106.614H126.72V117.24Z" fill="url(#paint19_linear_18_4467)"/>
<path d="M135.125 117.504C133.629 117.504 132.287 116.734 131.429 115.524V121.288H130.285V106.614H131.429V108.286C132.177 107.208 133.541 106.35 135.125 106.35C137.963 106.35 139.877 108.506 139.877 111.916C139.877 115.304 137.963 117.504 135.125 117.504ZM134.927 116.47C137.303 116.47 138.645 114.49 138.645 111.916C138.645 109.342 137.303 107.384 134.927 107.384C133.453 107.384 132.045 108.264 131.429 109.276V114.534C132.045 115.546 133.453 116.47 134.927 116.47Z" fill="url(#paint20_linear_18_4467)"/>
<path d="M150.665 117.24H149.521V115.986C148.575 117.02 147.387 117.504 145.913 117.504C144.087 117.504 142.195 116.25 142.195 113.962C142.195 111.652 144.065 110.442 145.913 110.442C147.387 110.442 148.597 110.926 149.521 111.96V109.804C149.521 108.22 148.245 107.362 146.661 107.362C145.341 107.362 144.307 107.824 143.339 108.924L142.701 108.132C143.801 106.944 145.033 106.35 146.793 106.35C148.949 106.35 150.665 107.384 150.665 109.76V117.24ZM146.309 116.602C147.585 116.602 148.773 116.118 149.521 115.15V112.818C148.773 111.85 147.585 111.344 146.309 111.344C144.549 111.344 143.405 112.466 143.405 113.984C143.405 115.48 144.549 116.602 146.309 116.602Z" fill="url(#paint21_linear_18_4467)"/>
<path d="M159.784 117.24H154.24V106.614H159.696C161.434 106.614 162.578 107.648 162.578 109.342C162.578 110.618 161.764 111.498 160.884 111.762C161.94 112.048 162.776 113.17 162.776 114.358C162.776 116.14 161.632 117.24 159.784 117.24ZM159.542 116.206C160.818 116.206 161.566 115.48 161.566 114.27C161.566 113.258 160.884 112.268 159.542 112.268H155.384V116.206H159.542ZM159.498 111.256C160.73 111.256 161.39 110.464 161.39 109.452C161.39 108.352 160.708 107.626 159.498 107.626H155.384V111.256H159.498Z" fill="url(#paint22_linear_18_4467)"/>
<path d="M164.756 117.504V116.514C165.79 116.514 166.516 115.326 166.978 111.916L167.682 106.614H174.458V117.24H173.314V107.626H168.716L168.122 112.048C167.594 116.074 166.582 117.504 164.756 117.504Z" fill="url(#paint23_linear_18_4467)"/>
<path d="M182.731 117.504C179.629 117.504 177.407 115.194 177.407 111.916C177.407 108.836 179.585 106.35 182.533 106.35C185.767 106.35 187.549 108.924 187.549 111.982V112.29H178.661C178.771 114.6 180.311 116.514 182.819 116.514C184.161 116.514 185.393 116.008 186.295 115.04L186.889 115.788C185.833 116.888 184.491 117.504 182.731 117.504ZM186.383 111.388C186.361 109.584 185.173 107.34 182.511 107.34C180.003 107.34 178.749 109.54 178.661 111.388H186.383Z" fill="url(#paint24_linear_18_4467)"/>
<path d="M191.65 117.24H190.506V106.614H191.65V111.234H197.678V106.614H198.822V117.24H197.678V112.246H191.65V117.24Z" fill="url(#paint25_linear_18_4467)"/>
<path d="M203.487 117.24H202.387V106.614H203.531V115.458L209.581 106.614H210.703V117.24H209.559V108.264L203.487 117.24Z" fill="url(#paint26_linear_18_4467)"/>
<path d="M215.301 117.24H213.937L216.907 112.884C215.169 112.774 214.025 111.542 214.025 109.76C214.025 108 215.213 106.614 217.259 106.614H222.539V117.24H221.373V112.906H218.139L215.301 117.24ZM217.347 111.894H221.373V107.626H217.347C215.983 107.626 215.213 108.506 215.213 109.76C215.213 111.014 215.939 111.894 217.347 111.894Z" fill="url(#paint27_linear_18_4467)"/>
<path d="M236.331 117.504C233.207 117.504 231.161 115.018 231.161 111.916C231.161 108.814 233.207 106.35 236.331 106.35C238.179 106.35 239.235 107.076 240.093 108.154L239.301 108.858C238.531 107.802 237.563 107.384 236.397 107.384C233.911 107.384 232.393 109.364 232.393 111.916C232.393 114.468 233.911 116.47 236.397 116.47C237.563 116.47 238.531 116.03 239.301 114.974L240.093 115.678C239.235 116.778 238.179 117.504 236.331 117.504Z" fill="url(#paint28_linear_18_4467)"/>
<path d="M247.136 117.504C244.034 117.504 242.032 115.018 242.032 111.916C242.032 108.814 244.034 106.35 247.136 106.35C250.282 106.35 252.262 108.814 252.262 111.916C252.262 115.018 250.282 117.504 247.136 117.504ZM247.136 116.47C249.644 116.47 251.03 114.292 251.03 111.916C251.03 109.562 249.644 107.384 247.136 107.384C244.672 107.384 243.264 109.562 243.264 111.916C243.264 114.292 244.672 116.47 247.136 116.47Z" fill="url(#paint29_linear_18_4467)"/>
<path d="M259.771 117.504C256.647 117.504 254.601 115.018 254.601 111.916C254.601 108.814 256.647 106.35 259.771 106.35C261.619 106.35 262.675 107.076 263.533 108.154L262.741 108.858C261.971 107.802 261.003 107.384 259.837 107.384C257.351 107.384 255.833 109.364 255.833 111.916C255.833 114.468 257.351 116.47 259.837 116.47C261.003 116.47 261.971 116.03 262.741 114.974L263.533 115.678C262.675 116.778 261.619 117.504 259.771 117.504Z" fill="url(#paint30_linear_18_4467)"/>
<path d="M269.168 117.24H268.024V107.626H264.9V106.614H272.314V107.626H269.168V117.24Z" fill="url(#paint31_linear_18_4467)"/>
<path d="M279.17 117.504C276.068 117.504 274.066 115.018 274.066 111.916C274.066 108.814 276.068 106.35 279.17 106.35C282.316 106.35 284.296 108.814 284.296 111.916C284.296 115.018 282.316 117.504 279.17 117.504ZM279.17 116.47C281.678 116.47 283.064 114.292 283.064 111.916C283.064 109.562 281.678 107.384 279.17 107.384C276.706 107.384 275.298 109.562 275.298 111.916C275.298 114.292 276.706 116.47 279.17 116.47Z" fill="url(#paint32_linear_18_4467)"/>
<path d="M288.284 117.24H286.92L289.89 112.884C288.152 112.774 287.008 111.542 287.008 109.76C287.008 108 288.196 106.614 290.242 106.614H295.522V117.24H294.356V112.906H291.122L288.284 117.24ZM290.33 111.894H294.356V107.626H290.33C288.966 107.626 288.196 108.506 288.196 109.76C288.196 111.014 288.922 111.894 290.33 111.894Z" fill="url(#paint33_linear_18_4467)"/>
<path d="M300.21 117.24H299.066V106.614H300.21V111.234H306.238V106.614H307.382V117.24H306.238V112.246H300.21V117.24Z" fill="url(#paint34_linear_18_4467)"/>
<path d="M312.047 117.24H310.947V106.614H312.091V115.458L318.141 106.614H319.263V117.24H318.119V108.264L312.047 117.24Z" fill="url(#paint35_linear_18_4467)"/>
<path d="M327.536 117.504C324.434 117.504 322.212 115.194 322.212 111.916C322.212 108.836 324.39 106.35 327.338 106.35C330.572 106.35 332.354 108.924 332.354 111.982V112.29H323.466C323.576 114.6 325.116 116.514 327.624 116.514C328.966 116.514 330.198 116.008 331.1 115.04L331.694 115.788C330.638 116.888 329.296 117.504 327.536 117.504ZM331.188 111.388C331.166 109.584 329.978 107.34 327.316 107.34C324.808 107.34 323.554 109.54 323.466 111.388H331.188Z" fill="url(#paint36_linear_18_4467)"/>
<path d="M345.342 117.24H344.176V108.176L340.546 117.24H340.128L336.454 108.176V117.24H335.31V106.614H336.85L340.326 115.238L343.758 106.614H345.342V117.24Z" fill="url(#paint37_linear_18_4467)"/>
<path d="M354.779 117.24H353.239L358.167 111.41L353.217 106.614H354.757L359.883 111.63V106.614H361.049V111.652L366.197 106.614H367.715L362.765 111.41L367.693 117.24H366.153L361.929 112.18L361.049 113.016V117.24H359.883V112.994L359.025 112.18L354.779 117.24Z" fill="url(#paint38_linear_18_4467)"/>
<path d="M371 117.24H369.9V106.614H371.044V115.458L377.094 106.614H378.216V117.24H377.072V108.264L371 117.24Z" fill="url(#paint39_linear_18_4467)"/>
<path d="M387.325 117.24H381.781V106.614H387.237C388.975 106.614 390.119 107.648 390.119 109.342C390.119 110.618 389.305 111.498 388.425 111.762C389.481 112.048 390.317 113.17 390.317 114.358C390.317 116.14 389.173 117.24 387.325 117.24ZM387.083 116.206C388.359 116.206 389.107 115.48 389.107 114.27C389.107 113.258 388.425 112.268 387.083 112.268H382.925V116.206H387.083ZM387.039 111.256C388.271 111.256 388.931 110.464 388.931 109.452C388.931 108.352 388.249 107.626 387.039 107.626H382.925V111.256H387.039Z" fill="url(#paint40_linear_18_4467)"/>
<path d="M393.683 106.614H394.827V110.948H398.963C401.075 110.948 402.197 112.4 402.197 114.094C402.197 115.788 401.075 117.24 398.963 117.24H393.683V106.614ZM398.875 111.96H394.827V116.206H398.875C400.261 116.206 400.987 115.326 400.987 114.094C400.987 112.862 400.283 111.96 398.875 111.96ZM405.167 117.24H404.001V106.614H405.167V117.24Z" fill="url(#paint41_linear_18_4467)"/>
<path d="M417.105 117.24H415.741L412.221 112.554L408.679 117.24H407.315L411.517 111.784L407.557 106.614H408.921L412.221 110.992L415.499 106.614H416.863L412.903 111.784L417.105 117.24Z" fill="url(#paint42_linear_18_4467)"/>
<path d="M429.497 117.504C426.373 117.504 424.327 115.018 424.327 111.916C424.327 108.814 426.373 106.35 429.497 106.35C431.345 106.35 432.401 107.076 433.259 108.154L432.467 108.858C431.697 107.802 430.729 107.384 429.563 107.384C427.077 107.384 425.559 109.364 425.559 111.916C425.559 114.468 427.077 116.47 429.563 116.47C430.729 116.47 431.697 116.03 432.467 114.974L433.259 115.678C432.401 116.778 431.345 117.504 429.497 117.504Z" fill="url(#paint43_linear_18_4467)"/>
<path d="M436.914 117.24H435.814V106.614H436.958V115.458L443.008 106.614H444.13V117.24H442.986V108.264L436.914 117.24Z" fill="url(#paint44_linear_18_4467)"/>
<path d="M452.249 117.504C449.125 117.504 447.079 115.018 447.079 111.916C447.079 108.814 449.125 106.35 452.249 106.35C454.097 106.35 455.153 107.076 456.011 108.154L455.219 108.858C454.449 107.802 453.481 107.384 452.315 107.384C449.829 107.384 448.311 109.364 448.311 111.916C448.311 114.468 449.829 116.47 452.315 116.47C453.481 116.47 454.449 116.03 455.219 114.974L456.011 115.678C455.153 116.778 454.097 117.504 452.249 117.504Z" fill="url(#paint45_linear_18_4467)"/>
<path d="M461.646 117.24H460.502V107.626H457.378V106.614H464.792V107.626H461.646V117.24Z" fill="url(#paint46_linear_18_4467)"/>
<path d="M471.868 117.504C468.766 117.504 466.544 115.194 466.544 111.916C466.544 108.836 468.722 106.35 471.67 106.35C474.904 106.35 476.686 108.924 476.686 111.982V112.29H467.798C467.908 114.6 469.448 116.514 471.956 116.514C473.298 116.514 474.53 116.008 475.432 115.04L476.026 115.788C474.97 116.888 473.628 117.504 471.868 117.504ZM475.52 111.388C475.498 109.584 474.31 107.34 471.648 107.34C469.14 107.34 467.886 109.54 467.798 111.388H475.52Z" fill="url(#paint47_linear_18_4467)"/>
<path d="M489.674 117.24H488.508V108.176L484.878 117.24H484.46L480.786 108.176V117.24H479.642V106.614H481.182L484.658 115.238L488.09 106.614H489.674V117.24Z" fill="url(#paint48_linear_18_4467)"/>
<path d="M498.825 106.614H499.969V109.694C499.969 111.938 500.981 112.532 502.829 112.532C503.973 112.532 505.293 112.202 505.997 111.806V106.614H507.141V117.24H505.997V112.752C505.139 113.192 503.797 113.544 502.609 113.544C499.991 113.544 498.825 112.554 498.825 109.958V106.614Z" fill="url(#paint49_linear_18_4467)"/>
<path d="M515.417 117.504C512.315 117.504 510.093 115.194 510.093 111.916C510.093 108.836 512.271 106.35 515.219 106.35C518.453 106.35 520.235 108.924 520.235 111.982V112.29H511.347C511.457 114.6 512.997 116.514 515.505 116.514C516.847 116.514 518.079 116.008 518.981 115.04L519.575 115.788C518.519 116.888 517.177 117.504 515.417 117.504ZM519.069 111.388C519.047 109.584 517.859 107.34 515.197 107.34C512.689 107.34 511.435 109.54 511.347 111.388H519.069Z" fill="url(#paint50_linear_18_4467)"/>
<path d="M528.031 117.504C526.535 117.504 525.193 116.734 524.335 115.524V121.288H523.191V106.614H524.335V108.286C525.083 107.208 526.447 106.35 528.031 106.35C530.869 106.35 532.783 108.506 532.783 111.916C532.783 115.304 530.869 117.504 528.031 117.504ZM527.833 116.47C530.209 116.47 531.551 114.49 531.551 111.916C531.551 109.342 530.209 107.384 527.833 107.384C526.359 107.384 524.951 108.264 524.335 109.276V114.534C524.951 115.546 526.359 116.47 527.833 116.47Z" fill="url(#paint51_linear_18_4467)"/>
<path d="M540.382 117.504C537.28 117.504 535.058 115.194 535.058 111.916C535.058 108.836 537.236 106.35 540.184 106.35C543.418 106.35 545.2 108.924 545.2 111.982V112.29H536.312C536.422 114.6 537.962 116.514 540.47 116.514C541.812 116.514 543.044 116.008 543.946 115.04L544.54 115.788C543.484 116.888 542.142 117.504 540.382 117.504ZM544.034 111.388C544.012 109.584 542.824 107.34 540.162 107.34C537.654 107.34 536.4 109.54 536.312 111.388H544.034Z" fill="url(#paint52_linear_18_4467)"/>
<path d="M551.852 117.504C549.74 117.504 548.2 116.844 547.122 115.744L547.716 114.996C548.706 116.008 550.136 116.514 551.852 116.514C553.942 116.514 555.372 115.678 555.372 114.358C555.372 112.84 553.656 112.334 551.632 112.334H549.168V111.366H551.632C553.524 111.366 555.174 110.706 555.174 109.276C555.174 108.11 553.634 107.34 551.654 107.34C550.092 107.34 548.904 107.78 547.98 108.748L547.32 108.044C548.31 107.054 549.674 106.35 551.61 106.35C554.294 106.35 556.384 107.362 556.384 109.188C556.384 110.86 554.668 111.674 553.48 111.828C554.69 111.916 556.604 112.62 556.604 114.424C556.604 116.184 554.866 117.504 551.852 117.504Z" fill="url(#paint53_linear_18_4467)"/>
<path d="M568.954 117.504C566.842 117.504 565.302 116.844 564.224 115.744L564.818 114.996C565.808 116.008 567.238 116.514 568.954 116.514C571.044 116.514 572.474 115.678 572.474 114.358C572.474 112.84 570.758 112.334 568.734 112.334H566.27V111.366H568.734C570.626 111.366 572.276 110.706 572.276 109.276C572.276 108.11 570.736 107.34 568.756 107.34C567.194 107.34 566.006 107.78 565.082 108.748L564.422 108.044C565.412 107.054 566.776 106.35 568.712 106.35C571.396 106.35 573.486 107.362 573.486 109.188C573.486 110.86 571.77 111.674 570.582 111.828C571.792 111.916 573.706 112.62 573.706 114.424C573.706 116.184 571.968 117.504 568.954 117.504Z" fill="url(#paint54_linear_18_4467)"/>
<path d="M582.21 117.24H576.666V106.614H582.122C583.86 106.614 585.004 107.648 585.004 109.342C585.004 110.618 584.19 111.498 583.31 111.762C584.366 112.048 585.202 113.17 585.202 114.358C585.202 116.14 584.058 117.24 582.21 117.24ZM581.968 116.206C583.244 116.206 583.992 115.48 583.992 114.27C583.992 113.258 583.31 112.268 581.968 112.268H577.81V116.206H581.968ZM581.924 111.256C583.156 111.256 583.816 110.464 583.816 109.452C583.816 108.352 583.134 107.626 581.924 107.626H577.81V111.256H581.924Z" fill="url(#paint55_linear_18_4467)"/>
<path d="M587.864 121.398L588.062 120.342C588.304 120.452 588.722 120.518 588.986 120.518C589.69 120.518 590.174 120.232 590.592 119.22L591.428 117.328L586.94 106.614H588.216L592.088 115.898L595.916 106.614H597.214L591.714 119.572C591.142 120.914 590.24 121.552 588.986 121.552C588.634 121.552 588.15 121.486 587.864 121.398Z" fill="url(#paint56_linear_18_4467)"/>
<path d="M608.07 117.24H606.53L602.284 112.18L600.304 114.05V117.24H599.16V106.614H600.304V112.686L606.574 106.614H608.092L603.142 111.41L608.07 117.24Z" fill="url(#paint57_linear_18_4467)"/>
<path d="M8.052 132.614V133.626H2.222V143.24H1.078V132.614H8.052Z" fill="url(#paint58_linear_18_4467)"/>
<path d="M14.9117 143.504C11.8097 143.504 9.8077 141.018 9.8077 137.916C9.8077 134.814 11.8097 132.35 14.9117 132.35C18.0577 132.35 20.0377 134.814 20.0377 137.916C20.0377 141.018 18.0577 143.504 14.9117 143.504ZM14.9117 142.47C17.4197 142.47 18.8057 140.292 18.8057 137.916C18.8057 135.562 17.4197 133.384 14.9117 133.384C12.4477 133.384 11.0397 135.562 11.0397 137.916C11.0397 140.292 12.4477 142.47 14.9117 142.47Z" fill="url(#paint59_linear_18_4467)"/>
<path d="M21.6061 143.504V142.514C22.6401 142.514 23.3661 141.326 23.8281 137.916L24.5321 132.614H31.3081V143.24H30.1641V133.626H25.5661L24.9721 138.048C24.4441 142.074 23.4321 143.504 21.6061 143.504Z" fill="url(#paint60_linear_18_4467)"/>
<path d="M39.3609 143.504C36.2589 143.504 34.2569 141.018 34.2569 137.916C34.2569 134.814 36.2589 132.35 39.3609 132.35C42.5069 132.35 44.4869 134.814 44.4869 137.916C44.4869 141.018 42.5069 143.504 39.3609 143.504ZM39.3609 142.47C41.8689 142.47 43.2549 140.292 43.2549 137.916C43.2549 135.562 41.8689 133.384 39.3609 133.384C36.8969 133.384 35.4889 135.562 35.4889 137.916C35.4889 140.292 36.8969 142.47 39.3609 142.47Z" fill="url(#paint61_linear_18_4467)"/>
<path d="M51.9953 143.504C48.8713 143.504 46.8253 141.018 46.8253 137.916C46.8253 134.814 48.8713 132.35 51.9953 132.35C53.8433 132.35 54.8993 133.076 55.7573 134.154L54.9653 134.858C54.1953 133.802 53.2273 133.384 52.0613 133.384C49.5753 133.384 48.0573 135.364 48.0573 137.916C48.0573 140.468 49.5753 142.47 52.0613 142.47C53.2273 142.47 54.1953 142.03 54.9653 140.974L55.7573 141.678C54.8993 142.778 53.8433 143.504 51.9953 143.504Z" fill="url(#paint62_linear_18_4467)"/>
<path d="M66.2104 143.24H65.0664V141.986C64.1204 143.02 62.9324 143.504 61.4584 143.504C59.6324 143.504 57.7404 142.25 57.7404 139.962C57.7404 137.652 59.6104 136.442 61.4584 136.442C62.9324 136.442 64.1424 136.926 65.0664 137.96V135.804C65.0664 134.22 63.7904 133.362 62.2064 133.362C60.8864 133.362 59.8524 133.824 58.8844 134.924L58.2464 134.132C59.3464 132.944 60.5784 132.35 62.3384 132.35C64.4944 132.35 66.2104 133.384 66.2104 135.76V143.24ZM61.8544 142.602C63.1304 142.602 64.3184 142.118 65.0664 141.15V138.818C64.3184 137.85 63.1304 137.344 61.8544 137.344C60.0944 137.344 58.9504 138.466 58.9504 139.984C58.9504 141.48 60.0944 142.602 61.8544 142.602Z" fill="url(#paint63_linear_18_4467)"/>
<path d="M75.3684 132.614H76.5124V135.694C76.5124 137.938 77.5244 138.532 79.3724 138.532C80.5164 138.532 81.8364 138.202 82.5404 137.806V132.614H83.6844V143.24H82.5404V138.752C81.6824 139.192 80.3404 139.544 79.1524 139.544C76.5344 139.544 75.3684 138.554 75.3684 135.958V132.614Z" fill="url(#paint64_linear_18_4467)"/>
<path d="M91.9598 143.504C88.8578 143.504 86.6358 141.194 86.6358 137.916C86.6358 134.836 88.8138 132.35 91.7618 132.35C94.9958 132.35 96.7778 134.924 96.7778 137.982V138.29H87.8898C87.9998 140.6 89.5398 142.514 92.0478 142.514C93.3898 142.514 94.6218 142.008 95.5238 141.04L96.1178 141.788C95.0618 142.888 93.7198 143.504 91.9598 143.504ZM95.6118 137.388C95.5898 135.584 94.4018 133.34 91.7398 133.34C89.2318 133.34 87.9778 135.54 87.8898 137.388H95.6118Z" fill="url(#paint65_linear_18_4467)"/>
<path d="M98.3483 143.504V142.514C99.3822 142.514 100.108 141.326 100.57 137.916L101.274 132.614H108.05V143.24H106.906V133.626H102.308L101.714 138.048C101.186 142.074 100.174 143.504 98.3483 143.504Z" fill="url(#paint66_linear_18_4467)"/>
<path d="M116.103 143.504C113.001 143.504 110.999 141.018 110.999 137.916C110.999 134.814 113.001 132.35 116.103 132.35C119.249 132.35 121.229 134.814 121.229 137.916C121.229 141.018 119.249 143.504 116.103 143.504ZM116.103 142.47C118.611 142.47 119.997 140.292 119.997 137.916C119.997 135.562 118.611 133.384 116.103 133.384C113.639 133.384 112.231 135.562 112.231 137.916C112.231 140.292 113.639 142.47 116.103 142.47Z" fill="url(#paint67_linear_18_4467)"/>
<path d="M129.727 143.24H124.183V132.614H129.639C131.377 132.614 132.521 133.648 132.521 135.342C132.521 136.618 131.707 137.498 130.827 137.762C131.883 138.048 132.719 139.17 132.719 140.358C132.719 142.14 131.575 143.24 129.727 143.24ZM129.485 142.206C130.761 142.206 131.509 141.48 131.509 140.27C131.509 139.258 130.827 138.268 129.485 138.268H125.327V142.206H129.485ZM129.441 137.256C130.673 137.256 131.333 136.464 131.333 135.452C131.333 134.352 130.651 133.626 129.441 133.626H125.327V137.256H129.441Z" fill="url(#paint68_linear_18_4467)"/>
<path d="M140.794 143.504C137.692 143.504 135.47 141.194 135.47 137.916C135.47 134.836 137.648 132.35 140.596 132.35C143.83 132.35 145.612 134.924 145.612 137.982V138.29H136.724C136.834 140.6 138.374 142.514 140.882 142.514C142.224 142.514 143.456 142.008 144.358 141.04L144.952 141.788C143.896 142.888 142.554 143.504 140.794 143.504ZM144.446 137.388C144.424 135.584 143.236 133.34 140.574 133.34C138.066 133.34 136.812 135.54 136.724 137.388H144.446Z" fill="url(#paint69_linear_18_4467)"/>
<path d="M157.478 143.24H155.938L151.692 138.18L149.712 140.05V143.24H148.568V132.614H149.712V138.686L155.982 132.614H157.5L152.55 137.41L157.478 143.24Z" fill="url(#paint70_linear_18_4467)"/>
<path d="M167.574 143.24H166.43V141.986C165.484 143.02 164.296 143.504 162.822 143.504C160.996 143.504 159.104 142.25 159.104 139.962C159.104 137.652 160.974 136.442 162.822 136.442C164.296 136.442 165.506 136.926 166.43 137.96V135.804C166.43 134.22 165.154 133.362 163.57 133.362C162.25 133.362 161.216 133.824 160.248 134.924L159.61 134.132C160.71 132.944 161.942 132.35 163.702 132.35C165.858 132.35 167.574 133.384 167.574 135.76V143.24ZM163.218 142.602C164.494 142.602 165.682 142.118 166.43 141.15V138.818C165.682 137.85 164.494 137.344 163.218 137.344C161.458 137.344 160.314 138.466 160.314 139.984C160.314 141.48 161.458 142.602 163.218 142.602Z" fill="url(#paint71_linear_18_4467)"/>
<path d="M177.942 143.24H176.842V132.614H177.986V141.458L184.036 132.614H185.158V143.24H184.014V134.264L177.942 143.24Z" fill="url(#paint72_linear_18_4467)"/>
<path d="M198.112 143.504C196 143.504 194.46 142.844 193.382 141.744L193.976 140.996C194.966 142.008 196.396 142.514 198.112 142.514C200.202 142.514 201.632 141.678 201.632 140.358C201.632 138.84 199.916 138.334 197.892 138.334H195.428V137.366H197.892C199.784 137.366 201.434 136.706 201.434 135.276C201.434 134.11 199.894 133.34 197.914 133.34C196.352 133.34 195.164 133.78 194.24 134.748L193.58 134.044C194.57 133.054 195.934 132.35 197.87 132.35C200.554 132.35 202.644 133.362 202.644 135.188C202.644 136.86 200.928 137.674 199.74 137.828C200.95 137.916 202.864 138.62 202.864 140.424C202.864 142.184 201.126 143.504 198.112 143.504Z" fill="url(#paint73_linear_18_4467)"/>
<path d="M211.368 143.24H205.824V132.614H211.28C213.018 132.614 214.162 133.648 214.162 135.342C214.162 136.618 213.348 137.498 212.468 137.762C213.524 138.048 214.36 139.17 214.36 140.358C214.36 142.14 213.216 143.24 211.368 143.24ZM211.126 142.206C212.402 142.206 213.15 141.48 213.15 140.27C213.15 139.258 212.468 138.268 211.126 138.268H206.968V142.206H211.126ZM211.082 137.256C212.314 137.256 212.974 136.464 212.974 135.452C212.974 134.352 212.292 133.626 211.082 133.626H206.968V137.256H211.082Z" fill="url(#paint74_linear_18_4467)"/>
<path d="M217.022 147.398L217.22 146.342C217.462 146.452 217.88 146.518 218.144 146.518C218.848 146.518 219.332 146.232 219.75 145.22L220.586 143.328L216.098 132.614H217.374L221.246 141.898L225.074 132.614H226.372L220.872 145.572C220.3 146.914 219.398 147.552 218.144 147.552C217.792 147.552 217.308 147.486 217.022 147.398Z" fill="url(#paint75_linear_18_4467)"/>
<path d="M228.208 132.614H229.352V135.694C229.352 137.938 230.364 138.532 232.212 138.532C233.356 138.532 234.676 138.202 235.38 137.806V132.614H236.524V143.24H235.38V138.752C234.522 139.192 233.18 139.544 231.992 139.544C229.374 139.544 228.208 138.554 228.208 135.958V132.614Z" fill="url(#paint76_linear_18_4467)"/>
<path d="M247.99 143.24H246.846V141.986C245.9 143.02 244.712 143.504 243.238 143.504C241.412 143.504 239.52 142.25 239.52 139.962C239.52 137.652 241.39 136.442 243.238 136.442C244.712 136.442 245.922 136.926 246.846 137.96V135.804C246.846 134.22 245.57 133.362 243.986 133.362C242.666 133.362 241.632 133.824 240.664 134.924L240.026 134.132C241.126 132.944 242.358 132.35 244.118 132.35C246.274 132.35 247.99 133.384 247.99 135.76V143.24ZM243.634 142.602C244.91 142.602 246.098 142.118 246.846 141.15V138.818C246.098 137.85 244.91 137.344 243.634 137.344C241.874 137.344 240.73 138.466 240.73 139.984C240.73 141.48 241.874 142.602 243.634 142.602Z" fill="url(#paint77_linear_18_4467)"/>
<path d="M252.708 143.24H251.564V132.614H252.708V137.234H258.736V132.614H259.88V143.24H258.736V138.246H252.708V143.24Z" fill="url(#paint78_linear_18_4467)"/>
<path d="M264.545 143.24H263.445V132.614H264.589V141.458L270.639 132.614H271.761V143.24H270.617V134.264L264.545 143.24Z" fill="url(#paint79_linear_18_4467)"/>
<path d="M280.034 143.504C276.932 143.504 274.71 141.194 274.71 137.916C274.71 134.836 276.888 132.35 279.836 132.35C283.07 132.35 284.852 134.924 284.852 137.982V138.29H275.964C276.074 140.6 277.614 142.514 280.122 142.514C281.464 142.514 282.696 142.008 283.598 141.04L284.192 141.788C283.136 142.888 281.794 143.504 280.034 143.504ZM283.686 137.388C283.664 135.584 282.476 133.34 279.814 133.34C277.306 133.34 276.052 135.54 275.964 137.388H283.686Z" fill="url(#paint80_linear_18_4467)"/>
<path d="M300.476 132.614V133.626H294.646V143.24H293.502V132.614H300.476Z" fill="url(#paint81_linear_18_4467)"/>
<path d="M307.688 143.504C306.192 143.504 304.85 142.734 303.992 141.524V147.288H302.848V132.614H303.992V134.286C304.74 133.208 306.104 132.35 307.688 132.35C310.526 132.35 312.44 134.506 312.44 137.916C312.44 141.304 310.526 143.504 307.688 143.504ZM307.49 142.47C309.866 142.47 311.208 140.49 311.208 137.916C311.208 135.342 309.866 133.384 307.49 133.384C306.016 133.384 304.608 134.264 303.992 135.276V140.534C304.608 141.546 306.016 142.47 307.49 142.47Z" fill="url(#paint82_linear_18_4467)"/>
<path d="M314.626 147.398L314.824 146.342C315.066 146.452 315.484 146.518 315.748 146.518C316.452 146.518 316.936 146.232 317.354 145.22L318.19 143.328L313.702 132.614H314.978L318.85 141.898L322.678 132.614H323.976L318.476 145.572C317.904 146.914 317.002 147.552 315.748 147.552C315.396 147.552 314.912 147.486 314.626 147.398Z" fill="url(#paint83_linear_18_4467)"/>
<path d="M334.238 143.24H333.094V133.626H327.066V143.24H325.922V132.614H334.238V143.24Z" fill="url(#paint84_linear_18_4467)"/>
<path d="M346.119 143.24H344.975V133.626H338.947V143.24H337.803V132.614H346.119V143.24Z" fill="url(#paint85_linear_18_4467)"/>
<path d="M349.683 132.614H350.827V136.948H354.963C357.075 136.948 358.197 138.4 358.197 140.094C358.197 141.788 357.075 143.24 354.963 143.24H349.683V132.614ZM354.875 137.96H350.827V142.206H354.875C356.261 142.206 356.987 141.326 356.987 140.094C356.987 138.862 356.283 137.96 354.875 137.96ZM361.167 143.24H360.001V132.614H361.167V143.24Z" fill="url(#paint86_linear_18_4467)"/>
<defs>
<linearGradient id="paint0_linear_18_4467" x1="399.656" y1="-5.29581" x2="139.138" y2="221.487" gradientUnits="userSpaceOnUse">
<stop stop-color="#DCB572"/>
<stop offset="1" stop-color="#F2E9D6"/>
</linearGradient>
<linearGradient id="paint1_linear_18_4467" x1="399.656" y1="-5.29581" x2="139.138" y2="221.487" gradientUnits="userSpaceOnUse">
<stop stop-color="#DCB572"/>
<stop offset="1" stop-color="#F2E9D6"/>
</linearGradient>
<linearGradient id="paint2_linear_18_4467" x1="399.656" y1="-5.29581" x2="139.138" y2="221.487" gradientUnits="userSpaceOnUse">
<stop stop-color="#DCB572"/>
<stop offset="1" stop-color="#F2E9D6"/>
</linearGradient>
<linearGradient id="paint3_linear_18_4467" x1="399.656" y1="-5.29581" x2="139.138" y2="221.487" gradientUnits="userSpaceOnUse">
<stop stop-color="#DCB572"/>
<stop offset="1" stop-color="#F2E9D6"/>
</linearGradient>
<linearGradient id="paint4_linear_18_4467" x1="399.656" y1="-5.29581" x2="139.138" y2="221.487" gradientUnits="userSpaceOnUse">
<stop stop-color="#DCB572"/>
<stop offset="1" stop-color="#F2E9D6"/>
</linearGradient>
<linearGradient id="paint5_linear_18_4467" x1="399.656" y1="-5.29581" x2="139.138" y2="221.487" gradientUnits="userSpaceOnUse">
<stop stop-color="#DCB572"/>
<stop offset="1" stop-color="#F2E9D6"/>
</linearGradient>
<linearGradient id="paint6_linear_18_4467" x1="399.656" y1="-5.29581" x2="139.138" y2="221.487" gradientUnits="userSpaceOnUse">
<stop stop-color="#DCB572"/>
<stop offset="1" stop-color="#F2E9D6"/>
</linearGradient>
<linearGradient id="paint7_linear_18_4467" x1="399.656" y1="-5.29581" x2="139.138" y2="221.487" gradientUnits="userSpaceOnUse">
<stop stop-color="#DCB572"/>
<stop offset="1" stop-color="#F2E9D6"/>
</linearGradient>
<linearGradient id="paint8_linear_18_4467" x1="399.656" y1="-5.29581" x2="139.138" y2="221.487" gradientUnits="userSpaceOnUse">
<stop stop-color="#DCB572"/>
<stop offset="1" stop-color="#F2E9D6"/>
</linearGradient>
<linearGradient id="paint9_linear_18_4467" x1="399.656" y1="-5.29581" x2="139.138" y2="221.487" gradientUnits="userSpaceOnUse">
<stop stop-color="#DCB572"/>
<stop offset="1" stop-color="#F2E9D6"/>
</linearGradient>
<linearGradient id="paint10_linear_18_4467" x1="226.078" y1="79.6471" x2="127.167" y2="313.998" gradientUnits="userSpaceOnUse">
<stop stop-color="#DCB572"/>
<stop offset="1" stop-color="white"/>
</linearGradient>
<linearGradient id="paint11_linear_18_4467" x1="226.078" y1="79.6471" x2="127.167" y2="313.998" gradientUnits="userSpaceOnUse">
<stop stop-color="#DCB572"/>
<stop offset="1" stop-color="white"/>
</linearGradient>
<linearGradient id="paint12_linear_18_4467" x1="226.078" y1="79.6471" x2="127.167" y2="313.998" gradientUnits="userSpaceOnUse">
<stop stop-color="#DCB572"/>
<stop offset="1" stop-color="white"/>
</linearGradient>
<linearGradient id="paint13_linear_18_4467" x1="226.078" y1="79.6471" x2="127.167" y2="313.998" gradientUnits="userSpaceOnUse">
<stop stop-color="#DCB572"/>
<stop offset="1" stop-color="white"/>
</linearGradient>
<linearGradient id="paint14_linear_18_4467" x1="226.078" y1="79.6471" x2="127.167" y2="313.998" gradientUnits="userSpaceOnUse">
<stop stop-color="#DCB572"/>
<stop offset="1" stop-color="white"/>
</linearGradient>
<linearGradient id="paint15_linear_18_4467" x1="226.078" y1="79.6471" x2="127.167" y2="313.998" gradientUnits="userSpaceOnUse">
<stop stop-color="#DCB572"/>
<stop offset="1" stop-color="white"/>
</linearGradient>
<linearGradient id="paint16_linear_18_4467" x1="226.078" y1="79.6471" x2="127.167" y2="313.998" gradientUnits="userSpaceOnUse">
<stop stop-color="#DCB572"/>
<stop offset="1" stop-color="white"/>
</linearGradient>
<linearGradient id="paint17_linear_18_4467" x1="226.078" y1="79.6471" x2="127.167" y2="313.998" gradientUnits="userSpaceOnUse">
<stop stop-color="#DCB572"/>
<stop offset="1" stop-color="white"/>
</linearGradient>
<linearGradient id="paint18_linear_18_4467" x1="226.078" y1="79.6471" x2="127.167" y2="313.998" gradientUnits="userSpaceOnUse">
<stop stop-color="#DCB572"/>
<stop offset="1" stop-color="white"/>
</linearGradient>
<linearGradient id="paint19_linear_18_4467" x1="226.078" y1="79.6471" x2="127.167" y2="313.998" gradientUnits="userSpaceOnUse">
<stop stop-color="#DCB572"/>
<stop offset="1" stop-color="white"/>
</linearGradient>
<linearGradient id="paint20_linear_18_4467" x1="226.078" y1="79.6471" x2="127.167" y2="313.998" gradientUnits="userSpaceOnUse">
<stop stop-color="#DCB572"/>
<stop offset="1" stop-color="white"/>
</linearGradient>
<linearGradient id="paint21_linear_18_4467" x1="226.078" y1="79.6471" x2="127.167" y2="313.998" gradientUnits="userSpaceOnUse">
<stop stop-color="#DCB572"/>
<stop offset="1" stop-color="white"/>
</linearGradient>
<linearGradient id="paint22_linear_18_4467" x1="226.078" y1="79.6471" x2="127.167" y2="313.998" gradientUnits="userSpaceOnUse">
<stop stop-color="#DCB572"/>
<stop offset="1" stop-color="white"/>
</linearGradient>
<linearGradient id="paint23_linear_18_4467" x1="226.078" y1="79.6471" x2="127.167" y2="313.998" gradientUnits="userSpaceOnUse">
<stop stop-color="#DCB572"/>
<stop offset="1" stop-color="white"/>
</linearGradient>
<linearGradient id="paint24_linear_18_4467" x1="226.078" y1="79.6471" x2="127.167" y2="313.998" gradientUnits="userSpaceOnUse">
<stop stop-color="#DCB572"/>
<stop offset="1" stop-color="white"/>
</linearGradient>
<linearGradient id="paint25_linear_18_4467" x1="226.078" y1="79.6471" x2="127.167" y2="313.998" gradientUnits="userSpaceOnUse">
<stop stop-color="#DCB572"/>
<stop offset="1" stop-color="white"/>
</linearGradient>
<linearGradient id="paint26_linear_18_4467" x1="226.078" y1="79.6471" x2="127.167" y2="313.998" gradientUnits="userSpaceOnUse">
<stop stop-color="#DCB572"/>
<stop offset="1" stop-color="white"/>
</linearGradient>
<linearGradient id="paint27_linear_18_4467" x1="226.078" y1="79.6471" x2="127.167" y2="313.998" gradientUnits="userSpaceOnUse">
<stop stop-color="#DCB572"/>
<stop offset="1" stop-color="white"/>
</linearGradient>
<linearGradient id="paint28_linear_18_4467" x1="226.078" y1="79.6471" x2="127.167" y2="313.998" gradientUnits="userSpaceOnUse">
<stop stop-color="#DCB572"/>
<stop offset="1" stop-color="white"/>
</linearGradient>
<linearGradient id="paint29_linear_18_4467" x1="226.078" y1="79.6471" x2="127.167" y2="313.998" gradientUnits="userSpaceOnUse">
<stop stop-color="#DCB572"/>
<stop offset="1" stop-color="white"/>
</linearGradient>
<linearGradient id="paint30_linear_18_4467" x1="226.078" y1="79.6471" x2="127.167" y2="313.998" gradientUnits="userSpaceOnUse">
<stop stop-color="#DCB572"/>
<stop offset="1" stop-color="white"/>
</linearGradient>
<linearGradient id="paint31_linear_18_4467" x1="226.078" y1="79.6471" x2="127.167" y2="313.998" gradientUnits="userSpaceOnUse">
<stop stop-color="#DCB572"/>
<stop offset="1" stop-color="white"/>
</linearGradient>
<linearGradient id="paint32_linear_18_4467" x1="226.078" y1="79.6471" x2="127.167" y2="313.998" gradientUnits="userSpaceOnUse">
<stop stop-color="#DCB572"/>
<stop offset="1" stop-color="white"/>
</linearGradient>
<linearGradient id="paint33_linear_18_4467" x1="226.078" y1="79.6471" x2="127.167" y2="313.998" gradientUnits="userSpaceOnUse">
<stop stop-color="#DCB572"/>
<stop offset="1" stop-color="white"/>
</linearGradient>
<linearGradient id="paint34_linear_18_4467" x1="226.078" y1="79.6471" x2="127.167" y2="313.998" gradientUnits="userSpaceOnUse">
<stop stop-color="#DCB572"/>
<stop offset="1" stop-color="white"/>
</linearGradient>
<linearGradient id="paint35_linear_18_4467" x1="226.078" y1="79.6471" x2="127.167" y2="313.998" gradientUnits="userSpaceOnUse">
<stop stop-color="#DCB572"/>
<stop offset="1" stop-color="white"/>
</linearGradient>
<linearGradient id="paint36_linear_18_4467" x1="226.078" y1="79.6471" x2="127.167" y2="313.998" gradientUnits="userSpaceOnUse">
<stop stop-color="#DCB572"/>
<stop offset="1" stop-color="white"/>
</linearGradient>
<linearGradient id="paint37_linear_18_4467" x1="226.078" y1="79.6471" x2="127.167" y2="313.998" gradientUnits="userSpaceOnUse">
<stop stop-color="#DCB572"/>
<stop offset="1" stop-color="white"/>
</linearGradient>
<linearGradient id="paint38_linear_18_4467" x1="226.078" y1="79.6471" x2="127.167" y2="313.998" gradientUnits="userSpaceOnUse">
<stop stop-color="#DCB572"/>
<stop offset="1" stop-color="white"/>
</linearGradient>
<linearGradient id="paint39_linear_18_4467" x1="226.078" y1="79.6471" x2="127.167" y2="313.998" gradientUnits="userSpaceOnUse">
<stop stop-color="#DCB572"/>
<stop offset="1" stop-color="white"/>
</linearGradient>
<linearGradient id="paint40_linear_18_4467" x1="226.078" y1="79.6471" x2="127.167" y2="313.998" gradientUnits="userSpaceOnUse">
<stop stop-color="#DCB572"/>
<stop offset="1" stop-color="white"/>
</linearGradient>
<linearGradient id="paint41_linear_18_4467" x1="226.078" y1="79.6471" x2="127.167" y2="313.998" gradientUnits="userSpaceOnUse">
<stop stop-color="#DCB572"/>
<stop offset="1" stop-color="white"/>
</linearGradient>
<linearGradient id="paint42_linear_18_4467" x1="226.078" y1="79.6471" x2="127.167" y2="313.998" gradientUnits="userSpaceOnUse">
<stop stop-color="#DCB572"/>
<stop offset="1" stop-color="white"/>
</linearGradient>
<linearGradient id="paint43_linear_18_4467" x1="226.078" y1="79.6471" x2="127.167" y2="313.998" gradientUnits="userSpaceOnUse">
<stop stop-color="#DCB572"/>
<stop offset="1" stop-color="white"/>
</linearGradient>
<linearGradient id="paint44_linear_18_4467" x1="226.078" y1="79.6471" x2="127.167" y2="313.998" gradientUnits="userSpaceOnUse">
<stop stop-color="#DCB572"/>
<stop offset="1" stop-color="white"/>
</linearGradient>
<linearGradient id="paint45_linear_18_4467" x1="226.078" y1="79.6471" x2="127.167" y2="313.998" gradientUnits="userSpaceOnUse">
<stop stop-color="#DCB572"/>
<stop offset="1" stop-color="white"/>
</linearGradient>
<linearGradient id="paint46_linear_18_4467" x1="226.078" y1="79.6471" x2="127.167" y2="313.998" gradientUnits="userSpaceOnUse">
<stop stop-color="#DCB572"/>
<stop offset="1" stop-color="white"/>
</linearGradient>
<linearGradient id="paint47_linear_18_4467" x1="226.078" y1="79.6471" x2="127.167" y2="313.998" gradientUnits="userSpaceOnUse">
<stop stop-color="#DCB572"/>
<stop offset="1" stop-color="white"/>
</linearGradient>
<linearGradient id="paint48_linear_18_4467" x1="226.078" y1="79.6471" x2="127.167" y2="313.998" gradientUnits="userSpaceOnUse">
<stop stop-color="#DCB572"/>
<stop offset="1" stop-color="white"/>
</linearGradient>
<linearGradient id="paint49_linear_18_4467" x1="226.078" y1="79.6471" x2="127.167" y2="313.998" gradientUnits="userSpaceOnUse">
<stop stop-color="#DCB572"/>
<stop offset="1" stop-color="white"/>
</linearGradient>
<linearGradient id="paint50_linear_18_4467" x1="226.078" y1="79.6471" x2="127.167" y2="313.998" gradientUnits="userSpaceOnUse">
<stop stop-color="#DCB572"/>
<stop offset="1" stop-color="white"/>
</linearGradient>
<linearGradient id="paint51_linear_18_4467" x1="226.078" y1="79.6471" x2="127.167" y2="313.998" gradientUnits="userSpaceOnUse">
<stop stop-color="#DCB572"/>
<stop offset="1" stop-color="white"/>
</linearGradient>
<linearGradient id="paint52_linear_18_4467" x1="226.078" y1="79.6471" x2="127.167" y2="313.998" gradientUnits="userSpaceOnUse">
<stop stop-color="#DCB572"/>
<stop offset="1" stop-color="white"/>
</linearGradient>
<linearGradient id="paint53_linear_18_4467" x1="226.078" y1="79.6471" x2="127.167" y2="313.998" gradientUnits="userSpaceOnUse">
<stop stop-color="#DCB572"/>
<stop offset="1" stop-color="white"/>
</linearGradient>
<linearGradient id="paint54_linear_18_4467" x1="226.078" y1="79.6471" x2="127.167" y2="313.998" gradientUnits="userSpaceOnUse">
<stop stop-color="#DCB572"/>
<stop offset="1" stop-color="white"/>
</linearGradient>
<linearGradient id="paint55_linear_18_4467" x1="226.078" y1="79.6471" x2="127.167" y2="313.998" gradientUnits="userSpaceOnUse">
<stop stop-color="#DCB572"/>
<stop offset="1" stop-color="white"/>
</linearGradient>
<linearGradient id="paint56_linear_18_4467" x1="226.078" y1="79.6471" x2="127.167" y2="313.998" gradientUnits="userSpaceOnUse">
<stop stop-color="#DCB572"/>
<stop offset="1" stop-color="white"/>
</linearGradient>
<linearGradient id="paint57_linear_18_4467" x1="226.078" y1="79.6471" x2="127.167" y2="313.998" gradientUnits="userSpaceOnUse">
<stop stop-color="#DCB572"/>
<stop offset="1" stop-color="white"/>
</linearGradient>
<linearGradient id="paint58_linear_18_4467" x1="226.078" y1="79.6471" x2="127.167" y2="313.998" gradientUnits="userSpaceOnUse">
<stop stop-color="#DCB572"/>
<stop offset="1" stop-color="white"/>
</linearGradient>
<linearGradient id="paint59_linear_18_4467" x1="226.078" y1="79.6471" x2="127.167" y2="313.998" gradientUnits="userSpaceOnUse">
<stop stop-color="#DCB572"/>
<stop offset="1" stop-color="white"/>
</linearGradient>
<linearGradient id="paint60_linear_18_4467" x1="226.078" y1="79.6471" x2="127.167" y2="313.998" gradientUnits="userSpaceOnUse">
<stop stop-color="#DCB572"/>
<stop offset="1" stop-color="white"/>
</linearGradient>
<linearGradient id="paint61_linear_18_4467" x1="226.078" y1="79.6471" x2="127.167" y2="313.998" gradientUnits="userSpaceOnUse">
<stop stop-color="#DCB572"/>
<stop offset="1" stop-color="white"/>
</linearGradient>
<linearGradient id="paint62_linear_18_4467" x1="226.078" y1="79.6471" x2="127.167" y2="313.998" gradientUnits="userSpaceOnUse">
<stop stop-color="#DCB572"/>
<stop offset="1" stop-color="white"/>
</linearGradient>
<linearGradient id="paint63_linear_18_4467" x1="226.078" y1="79.6471" x2="127.167" y2="313.998" gradientUnits="userSpaceOnUse">
<stop stop-color="#DCB572"/>
<stop offset="1" stop-color="white"/>
</linearGradient>
<linearGradient id="paint64_linear_18_4467" x1="226.078" y1="79.6471" x2="127.167" y2="313.998" gradientUnits="userSpaceOnUse">
<stop stop-color="#DCB572"/>
<stop offset="1" stop-color="white"/>
</linearGradient>
<linearGradient id="paint65_linear_18_4467" x1="226.078" y1="79.6471" x2="127.167" y2="313.998" gradientUnits="userSpaceOnUse">
<stop stop-color="#DCB572"/>
<stop offset="1" stop-color="white"/>
</linearGradient>
<linearGradient id="paint66_linear_18_4467" x1="226.078" y1="79.6471" x2="127.167" y2="313.998" gradientUnits="userSpaceOnUse">
<stop stop-color="#DCB572"/>
<stop offset="1" stop-color="white"/>
</linearGradient>
<linearGradient id="paint67_linear_18_4467" x1="226.078" y1="79.6471" x2="127.167" y2="313.998" gradientUnits="userSpaceOnUse">
<stop stop-color="#DCB572"/>
<stop offset="1" stop-color="white"/>
</linearGradient>
<linearGradient id="paint68_linear_18_4467" x1="226.078" y1="79.6471" x2="127.167" y2="313.998" gradientUnits="userSpaceOnUse">
<stop stop-color="#DCB572"/>
<stop offset="1" stop-color="white"/>
</linearGradient>
<linearGradient id="paint69_linear_18_4467" x1="226.078" y1="79.6471" x2="127.167" y2="313.998" gradientUnits="userSpaceOnUse">
<stop stop-color="#DCB572"/>
<stop offset="1" stop-color="white"/>
</linearGradient>
<linearGradient id="paint70_linear_18_4467" x1="226.078" y1="79.6471" x2="127.167" y2="313.998" gradientUnits="userSpaceOnUse">
<stop stop-color="#DCB572"/>
<stop offset="1" stop-color="white"/>
</linearGradient>
<linearGradient id="paint71_linear_18_4467" x1="226.078" y1="79.6471" x2="127.167" y2="313.998" gradientUnits="userSpaceOnUse">
<stop stop-color="#DCB572"/>
<stop offset="1" stop-color="white"/>
</linearGradient>
<linearGradient id="paint72_linear_18_4467" x1="226.078" y1="79.6471" x2="127.167" y2="313.998" gradientUnits="userSpaceOnUse">
<stop stop-color="#DCB572"/>
<stop offset="1" stop-color="white"/>
</linearGradient>
<linearGradient id="paint73_linear_18_4467" x1="226.078" y1="79.6471" x2="127.167" y2="313.998" gradientUnits="userSpaceOnUse">
<stop stop-color="#DCB572"/>
<stop offset="1" stop-color="white"/>
</linearGradient>
<linearGradient id="paint74_linear_18_4467" x1="226.078" y1="79.6471" x2="127.167" y2="313.998" gradientUnits="userSpaceOnUse">
<stop stop-color="#DCB572"/>
<stop offset="1" stop-color="white"/>
</linearGradient>
<linearGradient id="paint75_linear_18_4467" x1="226.078" y1="79.6471" x2="127.167" y2="313.998" gradientUnits="userSpaceOnUse">
<stop stop-color="#DCB572"/>
<stop offset="1" stop-color="white"/>
</linearGradient>
<linearGradient id="paint76_linear_18_4467" x1="226.078" y1="79.6471" x2="127.167" y2="313.998" gradientUnits="userSpaceOnUse">
<stop stop-color="#DCB572"/>
<stop offset="1" stop-color="white"/>
</linearGradient>
<linearGradient id="paint77_linear_18_4467" x1="226.078" y1="79.6471" x2="127.167" y2="313.998" gradientUnits="userSpaceOnUse">
<stop stop-color="#DCB572"/>
<stop offset="1" stop-color="white"/>
</linearGradient>
<linearGradient id="paint78_linear_18_4467" x1="226.078" y1="79.6471" x2="127.167" y2="313.998" gradientUnits="userSpaceOnUse">
<stop stop-color="#DCB572"/>
<stop offset="1" stop-color="white"/>
</linearGradient>
<linearGradient id="paint79_linear_18_4467" x1="226.078" y1="79.6471" x2="127.167" y2="313.998" gradientUnits="userSpaceOnUse">
<stop stop-color="#DCB572"/>
<stop offset="1" stop-color="white"/>
</linearGradient>
<linearGradient id="paint80_linear_18_4467" x1="226.078" y1="79.6471" x2="127.167" y2="313.998" gradientUnits="userSpaceOnUse">
<stop stop-color="#DCB572"/>
<stop offset="1" stop-color="white"/>
</linearGradient>
<linearGradient id="paint81_linear_18_4467" x1="226.078" y1="79.6471" x2="127.167" y2="313.998" gradientUnits="userSpaceOnUse">
<stop stop-color="#DCB572"/>
<stop offset="1" stop-color="white"/>
</linearGradient>
<linearGradient id="paint82_linear_18_4467" x1="226.078" y1="79.6471" x2="127.167" y2="313.998" gradientUnits="userSpaceOnUse">
<stop stop-color="#DCB572"/>
<stop offset="1" stop-color="white"/>
</linearGradient>
<linearGradient id="paint83_linear_18_4467" x1="226.078" y1="79.6471" x2="127.167" y2="313.998" gradientUnits="userSpaceOnUse">
<stop stop-color="#DCB572"/>
<stop offset="1" stop-color="white"/>
</linearGradient>
<linearGradient id="paint84_linear_18_4467" x1="226.078" y1="79.6471" x2="127.167" y2="313.998" gradientUnits="userSpaceOnUse">
<stop stop-color="#DCB572"/>
<stop offset="1" stop-color="white"/>
</linearGradient>
<linearGradient id="paint85_linear_18_4467" x1="226.078" y1="79.6471" x2="127.167" y2="313.998" gradientUnits="userSpaceOnUse">
<stop stop-color="#DCB572"/>
<stop offset="1" stop-color="white"/>
</linearGradient>
<linearGradient id="paint86_linear_18_4467" x1="226.078" y1="79.6471" x2="127.167" y2="313.998" gradientUnits="userSpaceOnUse">
<stop stop-color="#DCB572"/>
<stop offset="1" stop-color="white"/>
</linearGradient>
</defs>
</svg>
